<?xml version="1.0" encoding="UTF-8" standalone="no"?>
<!-- Created with Inkscape (http://www.inkscape.org/) -->
<!-- ClipArt by Arvin61r58 (http://openclipart.org/user-detail/Arvin61r58) -->
<svg
   xmlns:dc="http://purl.org/dc/elements/1.1/"
   xmlns:cc="http://creativecommons.org/ns#"
   xmlns:rdf="http://www.w3.org/1999/02/22-rdf-syntax-ns#"
   xmlns:svg="http://www.w3.org/2000/svg"
   xmlns="http://www.w3.org/2000/svg"
   xmlns:xlink="http://www.w3.org/1999/xlink"
   version="1.1"
   id="svg4324"
   viewBox="0 0 355 429.00001"
   height="429"
   width="355">
  <title
     id="title4948">Autumn Leaf 6</title>
  <defs
     id="defs4326">
    <linearGradient
       gradientTransform="translate(143.60136,507.96302)"
       gradientUnits="userSpaceOnUse"
       y2="361.845"
       x2="613.96893"
       y1="441.14722"
       x1="460.00363"
       id="linearGradient4360"
       xlink:href="#linearGradient4354" />
    <linearGradient
       id="linearGradient4354">
      <stop
         id="stop4356"
         offset="0"
         style="stop-color:#668c39;stop-opacity:1;" />
      <stop
         id="stop4358"
         offset="1"
         style="stop-color:#fad93b;stop-opacity:1" />
    </linearGradient>
    <filter
       height="1"
       width="1"
       x="0"
       y="0"
       id="filter4434"
       style="color-interpolation-filters:sRGB">
      <feGaussianBlur
         id="feGaussianBlur4436"
         result="result8"
         stdDeviation="0.01" />
      <feTurbulence
         id="feTurbulence4438"
         seed="3"
         result="result7"
         type="turbulence"
         numOctaves="5"
         baseFrequency="0.025 0.028" />
      <feColorMatrix
         id="feColorMatrix4440"
         result="result5"
         values="1 0 0 0 0 0 1 0 0 0 0 0 1 0 0 0 0 0 6 -2.4 " />
      <feComposite
         id="feComposite4442"
         result="result6"
         in="result8"
         operator="in"
         in2="result7" />
      <feDisplacementMap
         id="feDisplacementMap4444"
         in="result5"
         xChannelSelector="R"
         yChannelSelector="A"
         scale="75"
         result="result4"
         in2="result6" />
      <feFlood
         id="feFlood4446"
         result="result10"
         flood-opacity="1"
         flood-color="rgb(232,217,31)" />
      <feComposite
         id="feComposite4448"
         result="result2"
         operator="in"
         in2="result4" />
      <feComposite
         id="feComposite4450"
         result="result9"
         in="result2"
         operator="in"
         in2="result8" />
      <feBlend
         id="feBlend4452"
         result="result11"
         in2="result8"
         mode="normal" />
    </filter>
  </defs>
  <metadata
     id="metadata4329">
    <rdf:RDF>
      <cc:Work
         rdf:about="">
        <dc:format>image/svg+xml</dc:format>
        <dc:type
           rdf:resource="http://purl.org/dc/dcmitype/StillImage" />
        <dc:title>Autumn Leaf 6</dc:title>
        <cc:license
           rdf:resource="http://creativecommons.org/publicdomain/zero/1.0/" />
        <dc:creator>
          <cc:Agent>
            <dc:title>Arvin61r58</dc:title>
          </cc:Agent>
        </dc:creator>
        <dc:publisher>
          <cc:Agent>
            <dc:title>Openclipart.org</dc:title>
          </cc:Agent>
        </dc:publisher>
        <dc:identifier>https://openclipart.org/</dc:identifier>
        <dc:source>https://openclipart.org/user-detail/Arvin61r58</dc:source>
        <dc:subject>
          <rdf:Bag>
            <rdf:li>Autumn</rdf:li>
            <rdf:li>Fall</rdf:li>
            <rdf:li>leaf</rdf:li>
            <rdf:li>tree</rdf:li>
            <rdf:li>nature</rdf:li>
            <rdf:li>colors</rdf:li>
            <rdf:li>colours</rdf:li>
          </rdf:Bag>
        </dc:subject>
        <dc:description>Autumn colors leaf</dc:description>
      </cc:Work>
      <cc:License
         rdf:about="http://creativecommons.org/publicdomain/zero/1.0/">
        <cc:permits
           rdf:resource="http://creativecommons.org/ns#Reproduction" />
        <cc:permits
           rdf:resource="http://creativecommons.org/ns#Distribution" />
        <cc:permits
           rdf:resource="http://creativecommons.org/ns#DerivativeWorks" />
      </cc:License>
    </rdf:RDF>
  </metadata>
  <g
     transform="translate(-154.75863,-326.20327)"
     id="layer1">
    <g
       id="g4538"
       transform="matrix(2.5142676,0,0,2.8146818,-626.34289,-1986.3946)">
      <title
         id="title5687">Autumn Leaf 6  --  by Arvin61r58</title>
      <path
         style="color:#000000;font-style:normal;font-variant:normal;font-weight:normal;font-stretch:normal;font-size:medium;line-height:normal;font-family:sans-serif;text-indent:0;text-align:start;text-decoration:none;text-decoration-line:none;text-decoration-style:solid;text-decoration-color:#000000;letter-spacing:normal;word-spacing:normal;text-transform:none;direction:ltr;block-progression:tb;writing-mode:lr-tb;baseline-shift:baseline;text-anchor:start;white-space:normal;clip-rule:nonzero;display:inline;overflow:visible;visibility:visible;opacity:1;isolation:auto;mix-blend-mode:normal;color-interpolation:sRGB;color-interpolation-filters:linearRGB;solid-color:#000000;solid-opacity:1;fill:#005100;fill-opacity:1;fill-rule:evenodd;stroke:none;stroke-width:2;stroke-linecap:butt;stroke-linejoin:miter;stroke-miterlimit:4;stroke-dasharray:none;stroke-dashoffset:0;stroke-opacity:1;color-rendering:auto;image-rendering:auto;shape-rendering:auto;text-rendering:auto;enable-background:accumulate"
         d="m 381.03234,913.6793 1.41845,0.38036 c -2.15348,16.04627 6.23659,40.28436 18.77491,52.92627 -2.07022,-0.5713 -2.75666,0.2412 -2.42188,2.0749 -13.13734,-13.24591 -20.04276,-38.45756 -17.77148,-55.38153 z"
         id="path6217" />
      <path
         style="fill:url(#linearGradient4360);fill-opacity:1;fill-rule:evenodd;stroke:none;stroke-width:1px;stroke-linecap:butt;stroke-linejoin:miter;stroke-opacity:1;filter:url(#filter4434)"
         d="m 636.88011,991.38899 c 5.18342,-12.03109 7.09065,-22.42409 -1.85123,-27.39253 -7.73526,-1.17721 -20.37932,-2.25963 -35.01467,0.0132 l 1.62406,-19.69286 c -7.1507,-18.49596 -22.10419,-13.58354 -36.08821,-11.57954 l 47.27316,-22.6648 -56.13962,-29.29163 c 17.12995,7.37735 34.25989,4.1846 51.38984,-2.57781 l -32.00588,-12.63423 19.09145,-17.12585 -16.04024,-44.44256 c 11.0786,12.4334 21.68907,25.80306 36.18637,31.39905 l 19.49338,8.02822 -6.78727,-17.84314 29.24375,25.54132 c 4.35183,-18.5116 9.79125,-32.90157 6.89778,-44.48533 l -3.12462,-20.69045 12.73312,-7.67118 c 2.3271,-16.3396 4.74926,-26.03138 12.18461,-39.96983 8.12291,11.97477 9.33626,26.09204 12.18462,39.96983 l 12.73312,7.67118 6.4209,14.47305 c -2.89347,11.58376 -12.56779,30.41473 -8.21596,48.92633 l 34.81197,-23.76492 -6.78727,17.84314 23.47068,-3.58722 c 14.4973,-5.59599 21.13047,-23.40665 32.20907,-35.84005 l -16.04024,44.44256 8.75047,18.01405 -21.6649,11.74603 c 17.12995,6.76241 34.25989,9.95516 51.38984,2.57781 l -56.13962,29.29163 47.27316,22.6648 c -13.98402,-2.004 -28.93751,-6.91642 -36.08821,11.57954 l 14.35142,22.35746 c -14.63535,-2.27284 -40.00677,-3.85502 -47.74203,-2.67781 -8.94188,4.96844 -7.03465,15.36144 -1.85123,27.39253 -17.14623,9.87802 -36.74027,-23.20248 -48.57083,-34.13196 -10.85548,18.44278 -27.9489,31.31927 -49.56074,34.13196 z"
         id="path3365"
         transform="matrix(0.5,0,0,0.4,38.291766,531.62523)" />
      <path
         style="fill:none;fill-rule:evenodd;stroke:#006100;stroke-width:0.50891566px;stroke-linecap:butt;stroke-linejoin:miter;stroke-opacity:0.19607843"
         d="m 380.6054,913.434 0.86831,-85.38297"
         id="path6223" />
      <path
         style="fill:none;fill-rule:evenodd;stroke:#006100;stroke-width:0.50891566px;stroke-linecap:butt;stroke-linejoin:miter;stroke-opacity:0.19607843"
         d="m 380.6054,906.48759 c 14.91491,-12.17524 31.92749,0.0797 46.59884,-4.92038"
         id="path6234" />
      <path
         id="path6236"
         d="m 380.16108,906.19816 c -14.91491,-12.17524 -31.92749,0.0797 -46.59884,-4.92038"
         style="fill:none;fill-rule:evenodd;stroke:#006100;stroke-width:0.50891566px;stroke-linecap:butt;stroke-linejoin:miter;stroke-opacity:0.19607843" />
      <path
         style="fill:none;fill-rule:evenodd;stroke:#006100;stroke-width:0.50891566px;stroke-linecap:butt;stroke-linejoin:miter;stroke-opacity:0.19607843"
         d="m 380.32555,906.17399 c -2.46598,9.57543 -13.26296,10.30139 -17.81931,16.9995"
         id="path6238" />
      <path
         id="path6240"
         d="m 380.52191,906.17399 c 2.46598,9.57543 13.26296,10.30139 17.81931,16.9995"
         style="fill:none;fill-rule:evenodd;stroke:#006100;stroke-width:0.50891566px;stroke-linecap:butt;stroke-linejoin:miter;stroke-opacity:0.19607843" />
      <path
         style="fill:none;fill-rule:evenodd;stroke:#006100;stroke-width:0.50891566px;stroke-linecap:butt;stroke-linejoin:miter;stroke-opacity:0.19607843"
         d="m 381.07271,906.38942 c -14.00597,-2.32457 -26.23437,9.94749 -40.63539,7.75692"
         id="path6242" />
      <path
         id="path6244"
         d="m 379.80698,907.25772 c 14.00597,-2.32457 26.23437,9.94749 40.63539,7.75692"
         style="fill:none;fill-rule:evenodd;stroke:#006100;stroke-width:0.50891566px;stroke-linecap:butt;stroke-linejoin:miter;stroke-opacity:0.19607843" />
      <path
         id="path6246"
         d="m 380.46799,894.8632 c 12.36717,-5.00982 29.67724,-7.72402 45.21577,-8.24411"
         style="fill:none;fill-rule:evenodd;stroke:#006100;stroke-width:0.50891566px;stroke-linecap:butt;stroke-linejoin:miter;stroke-opacity:0.19607843" />
      <path
         style="fill:none;fill-rule:evenodd;stroke:#006100;stroke-width:0.50891566px;stroke-linecap:butt;stroke-linejoin:miter;stroke-opacity:0.19607843"
         d="m 380.92617,892.01088 c -12.75765,-3.90991 -30.23869,-5.10104 -45.76322,-4.26127"
         id="path6248" />
      <path
         style="fill:none;fill-rule:evenodd;stroke:#006100;stroke-width:0.50891566px;stroke-linecap:butt;stroke-linejoin:miter;stroke-opacity:0.19607843"
         d="m 381.07356,884.87404 c -11.48396,-15.45347 -30.97724,-7.73186 -43.98,-16.16853"
         id="path6250" />
      <path
         id="path6252"
         d="m 381.5061,882.55857 c 12.08579,-4.62052 31.07212,-6.02405 43.98,-16.16853"
         style="fill:none;fill-rule:evenodd;stroke:#006100;stroke-width:0.50891566px;stroke-linecap:butt;stroke-linejoin:miter;stroke-opacity:0.19607843" />
    </g>
  </g>
</svg>
